/vscmnt/brussel_pixiu_data/_data_brussel/112/vsc11236/PredSimResults/SUBJ06opt3D/expIG/worker_13.mot
version=1
nRows=5
nColumns=50
inDegrees=yes
endheader
                time	         pelvis_tilt	         pelvis_list	     pelvis_rotation	           pelvis_tx	           pelvis_ty	           pelvis_tz	       hip_flexion_r	     hip_adduction_r	      hip_rotation_r	        knee_angle_r	       ankle_angle_r	         mtp_angle_r	       hip_flexion_l	     hip_adduction_l	      hip_rotation_l	        knee_angle_l	       ankle_angle_l	         mtp_angle_l	    lumbar_extension	      lumbar_bending	     lumbar_rotation	 ercspn_r/activation	 intobl_r/activation	 extobl_r/activation	    abd_r/activation	    add_r/activation	hamstrings_r/activation	bifemsh_r/activation	glut_max_r/activation	iliopsoas_r/activation	rect_fem_r/activation	  vasti_r/activation	gastroc_r/activation	 soleus_r/activation	tib_ant_r/activation	 ercspn_l/activation	 intobl_l/activation	 extobl_l/activation	    abd_l/activation	    add_l/activation	hamstrings_l/activation	bifemsh_l/activation	glut_max_l/activation	iliopsoas_l/activation	rect_fem_l/activation	  vasti_l/activation	gastroc_l/activation	 soleus_l/activation	tib_ant_l/activation	
          1.23892443	         -6.08698478	          2.42838756	         -6.80790125	          2.23006397	          0.93500637	          0.00552584	        -17.01036267	         -2.65009401	         -4.68334984	         -9.54090693	         -7.33530982	         43.48492753	         35.12171041	         -0.06981673	         -7.86700315	        -24.04109732	          4.59873247	          0.42120118	         -9.35565924	         -3.71033598	         13.99458052	          0.18311264	          0.00999999	          0.00999999	          0.01334219	          0.27674548	          0.07163226	          0.36688937	          0.01472431	          0.81358223	          0.06618141	          0.01703665	          0.31593652	          0.15231685	          0.00999999	          0.24104027	          0.07480967	          0.00999999	          0.01137657	          0.27242112	          0.46677469	          0.20064500	          0.00999999	          0.22474572	          0.01137657	          0.00999999	          0.01472431	          0.01137657	          0.77194328	
          1.24718393	         -6.03342621	          2.45392519	         -6.74200849	          2.24756770	          0.93181337	          0.00483456	        -17.27728682	         -2.86666741	         -4.99338624	        -11.03672907	         -8.01644365	         44.24223580	         34.78631909	          0.30479824	         -7.51597900	        -24.30023992	          3.97890026	          0.43765965	         -9.05990076	         -3.89927505	         14.30385232	          0.20454723	          0.00999999	          0.00999999	          0.01172776	          0.25354987	          0.06296465	          0.32249523	          0.01294265	          0.82941404	          0.05817336	          0.01497519	          0.27770775	          0.13388629	          0.00999999	          0.21450769	          0.06575760	          0.00999999	          0.00999999	          0.39903792	          0.41029429	          0.17636667	          0.12737566	          0.19755117	          0.00999999	          0.00999999	          0.01294265	          0.00999999	          0.85292671	
          1.25544342	         -5.97125358	          2.48632426	         -6.65414101	          2.26512768	          0.92840268	          0.00411330	        -17.27723824	         -3.11518394	         -5.30900126	        -13.06269242	         -8.58583137	         44.81953474	         34.57492054	          0.63389061	         -7.12841595	        -25.71317018	          3.55383122	          0.33822788	         -8.75979847	         -4.09529852	         14.55144214	          0.19467310	          0.01088166	          0.00999999	          0.01030869	          0.33668704	          0.07873882	          0.28347285	          0.01137657	          0.72905376	          0.05113430	          0.01316317	          0.24410472	          0.11768586	          0.00999999	          0.18855196	          0.05780083	          0.00999999	          0.00999999	          0.43180257	          0.36064810	          0.15502605	          0.12216643	          0.17364720	          0.00999999	          0.10710097	          0.01137657	          0.00999999	          0.74972136	
          1.26370292	         -5.90387077	          2.55143149	         -6.54252620	          2.28270400	          0.92489738	          0.00337774	        -17.00557930	         -3.42309204	         -5.64029695	        -15.59764428	         -9.09810872	         45.12416681	         34.35574943	          0.93704721	         -6.77669888	        -27.52908176	          4.34230082	          0.32032635	         -8.45696144	         -4.32907976	         14.73186844	          0.23221582	          0.00999999	          0.00999999	          0.00999999	          0.29594743	          0.06921131	          0.24917223	          0.00999999	          0.64083722	          0.04494698	          0.01157041	          0.21456770	          0.10344570	          0.00999999	          0.16573690	          0.05080685	          0.00999999	          0.16417642	          0.37955384	          0.31700916	          0.13626768	          0.14830529	          0.15263564	          0.00999999	          0.25720535	          0.00999999	          0.00999999	          0.65900401	
          1.27196241	         -5.83577450	          2.63124531	         -6.38376313	          2.30010005	          0.92161144	          0.00260987	        -16.43737834	         -3.76784941	         -6.00190126	        -18.61939890	         -9.69486947	         45.07916890	         34.10530669	          1.20693693	         -6.62431598	        -29.41452874	          5.93938379	          0.68464936	         -8.17910463	         -4.57930739	         14.82600596	          0.29429425	          0.00999999	          0.00999999	          0.00999999	          0.30147033	          0.06083665	          0.21902204	          0.00999999	          0.56329500	          0.03950833	          0.01017037	          0.18860470	          0.09092863	          0.00999999	          0.14568250	          0.04465915	          0.00999999	          0.24914285	          0.33362729	          0.27865060	          0.11977910	          0.22337621	          0.13416651	          0.00999999	          0.45179153	          0.00999999	          0.01137657	          0.57926359	
